<svg xmlns="http://www.w3.org/2000/svg" fill="red" viewBox="0 0 64 64" width="64px" height="64px">
    <path d="M59.86,40.68l-2.14-8.58c-0.93-3.74-3.77-6.53-7.53-7.47L41.79,22H39.88l-1.21-2.7C37.78,18.13,36.96,17,36,17h-8
	c-0.96,0-1.78,1.13-2.66,2.3L24,22H22.21L13.8,24.63c-3.75,0.94-6.59,3.73-7.53,7.47l-2.14,8.58c-0.46,1.85,0.04,3.8,1.34,5.22
	C6.8,47.98,8.38,48.73,10,48.73V52c0,1.1,0.9,2,2,2h2c1.1,0,2-0.9,2-2v-3h32v3c0,1.1,0.9,2,2,2h2c1.1,0,2-0.9,2-2v-3
	c1.62,0,3.2-0.75,4.53-2.05C59.82,44.48,60.32,42.53,59.86,40.68z M48,29c2.21,0,4,1.79,4,4s-1.79,4-4,4s-4-1.79-4-4
	S45.79,29,48,29z M28.2,22h7.6l1.5,3h-10.6L28.2,22z M16,29c2.21,0,4,1.79,4,4s-1.79,4-4,4s-4-1.79-4-4S13.79,29,16,29z M7.52,38.29
	l2.14-8.58c0.56-2.25,2.23-4,4.47-4.66L16,25.49v5.51c-2.55,1.12-4.36,3.68-4.36,6.69c0,1.1,0.23,2.15,0.64,3.11H8.53
	C7.87,40.8,7.28,39.6,7.52,38.29z M56.48,38.29c0.24,1.32-0.35,2.52-1.02,3.51h-3.75c0.41-0.96,0.64-2.01,0.64-3.11
	c0-3.02-1.81-5.57-4.36-6.69v-5.51l1.86,0.57c2.24,0.66,3.91,2.41,4.47,4.66L56.48,38.29z"/>
</svg>